<mxfile host="app.diagrams.net" modified="2021-10-05T19:04:40.165Z" agent="5.0 (X11)" etag="gYpeWWcGEmWX2nm0Zhzt" version="15.4.1" type="github">
  <diagram id="_2LI_hFSN4ph7AZjKlz9" name="Page-1">
    <mxGraphModel dx="1262" dy="677" grid="1" gridSize="10" guides="1" tooltips="1" connect="1" arrows="1" fold="1" page="1" pageScale="1" pageWidth="850" pageHeight="1100" math="0" shadow="0">
      <root>
        <mxCell id="0" />
        <mxCell id="1" parent="0" />
        <mxCell id="fZxPZScQFTL_5xKDmJGv-1" value="" style="rounded=0;whiteSpace=wrap;html=1;strokeWidth=2;" vertex="1" parent="1">
          <mxGeometry x="80" y="80" width="40" height="400" as="geometry" />
        </mxCell>
        <mxCell id="fZxPZScQFTL_5xKDmJGv-2" value="" style="rounded=0;whiteSpace=wrap;html=1;strokeWidth=2;" vertex="1" parent="1">
          <mxGeometry x="280" y="80" width="40" height="400" as="geometry" />
        </mxCell>
        <mxCell id="fZxPZScQFTL_5xKDmJGv-3" value="80" style="shape=dimension;direction=east;whiteSpace=wrap;html=1;align=left;points=[];verticalAlign=middle;labelBackgroundColor=#ffffff" vertex="1" parent="1">
          <mxGeometry x="80" y="490" width="240" height="40" as="geometry" />
        </mxCell>
        <mxCell id="fZxPZScQFTL_5xKDmJGv-4" value="" style="rounded=0;whiteSpace=wrap;html=1;strokeWidth=2;" vertex="1" parent="1">
          <mxGeometry x="120" y="400" width="160" height="20" as="geometry" />
        </mxCell>
        <mxCell id="fZxPZScQFTL_5xKDmJGv-5" value="Label" style="shape=dimension;direction=south;whiteSpace=wrap;html=1;align=left;points=[];verticalAlign=middle;labelBackgroundColor=#ffffff" vertex="1" parent="1">
          <mxGeometry x="10" y="400" width="70" height="80" as="geometry" />
        </mxCell>
        <mxCell id="fZxPZScQFTL_5xKDmJGv-6" value="" style="rounded=0;whiteSpace=wrap;html=1;strokeWidth=2;" vertex="1" parent="1">
          <mxGeometry x="400" y="80" width="20" height="400" as="geometry" />
        </mxCell>
        <mxCell id="fZxPZScQFTL_5xKDmJGv-7" value="" style="rounded=0;whiteSpace=wrap;html=1;strokeWidth=2;" vertex="1" parent="1">
          <mxGeometry x="1180" y="80" width="20" height="400" as="geometry" />
        </mxCell>
        <mxCell id="fZxPZScQFTL_5xKDmJGv-8" value="75.5" style="shape=dimension;direction=east;whiteSpace=wrap;html=1;align=left;points=[];verticalAlign=middle;labelBackgroundColor=#ffffff" vertex="1" parent="1">
          <mxGeometry x="420" y="480" width="760" height="40" as="geometry" />
        </mxCell>
        <mxCell id="fZxPZScQFTL_5xKDmJGv-9" value="" style="rounded=0;whiteSpace=wrap;html=1;strokeWidth=2;" vertex="1" parent="1">
          <mxGeometry x="420" y="400" width="760" height="20" as="geometry" />
        </mxCell>
        <mxCell id="fZxPZScQFTL_5xKDmJGv-10" value="" style="rounded=0;whiteSpace=wrap;html=1;strokeWidth=2;" vertex="1" parent="1">
          <mxGeometry x="420" y="80" width="760" height="20" as="geometry" />
        </mxCell>
        <mxCell id="fZxPZScQFTL_5xKDmJGv-11" value="80" style="shape=dimension;direction=east;whiteSpace=wrap;html=1;align=left;points=[];verticalAlign=middle;labelBackgroundColor=#ffffff" vertex="1" parent="1">
          <mxGeometry x="400" y="480" width="800" height="90" as="geometry" />
        </mxCell>
        <mxCell id="fZxPZScQFTL_5xKDmJGv-12" value="" style="rounded=0;whiteSpace=wrap;html=1;strokeWidth=2;" vertex="1" parent="1">
          <mxGeometry x="120" y="80" width="160" height="20" as="geometry" />
        </mxCell>
      </root>
    </mxGraphModel>
  </diagram>
</mxfile>
